<svg width="95" height="30" viewBox="0 0 95 30" fill="none" xmlns="http://www.w3.org/2000/svg">
<g id="Google svg" clip-path="url(#clip0_70_1673)">
<g id="Group">
<path id="Vector" d="M11.8737 10.6868V13.8638H19.5407C19.3372 15.6213 18.7265 16.9732 17.7767 17.8519C16.6911 18.9335 14.927 20.1502 11.8737 20.1502C7.19208 20.1502 3.52819 16.3648 3.52819 11.7007C3.52819 7.03659 7.12423 3.25122 11.8737 3.25122C14.3842 3.25122 16.284 4.26516 17.641 5.54948L19.88 3.31882C17.9802 1.49373 15.4019 0.0742188 11.8737 0.0742188C5.42798 0.0742188 0 5.2791 0 11.7007C0 18.1223 5.42798 23.3272 11.8737 23.3272C15.3341 23.3272 17.9802 22.1781 20.0157 20.0826C22.119 17.9871 22.7975 15.0129 22.7975 12.6471C22.7975 11.9035 22.7297 11.2275 22.6618 10.6868H11.8737Z" fill="#4285F4"/>
<path id="Vector_2" d="M32.2964 8.05051C28.1576 8.05051 24.6973 11.2275 24.6973 15.5536C24.6973 19.8798 28.0898 23.0568 32.2964 23.0568C36.5031 23.0568 39.8956 19.9474 39.8956 15.6212C39.8956 11.2275 36.5031 8.05051 32.2964 8.05051ZM32.2964 20.1502C29.9895 20.1502 28.0219 18.2575 28.0219 15.6212C28.0219 12.9174 29.9895 11.0923 32.2964 11.0923C34.6033 11.0923 36.571 12.9174 36.571 15.6212C36.571 18.2575 34.6033 20.1502 32.2964 20.1502Z" fill="#EA4335"/>
<path id="Vector_3" d="M69.4103 9.7404H69.2746C68.5283 8.86166 67.1034 8.05051 65.2715 8.05051C61.4719 8.05051 58.2151 11.2951 58.2151 15.5536C58.2151 19.7446 61.4719 23.0568 65.2715 23.0568C67.1034 23.0568 68.5283 22.2456 69.2746 21.3669H69.4103V22.4484C69.4103 25.2875 67.8498 26.8422 65.4072 26.8422C63.3717 26.8422 62.1504 25.4226 61.6076 24.1383L58.7579 25.3551C59.5721 27.3153 61.8111 29.8164 65.475 29.8164C69.3425 29.8164 72.6671 27.5181 72.6671 21.9753V8.45608H69.546V9.7404H69.4103ZM65.6107 20.1502C63.3038 20.1502 61.6076 18.1899 61.6076 15.6212C61.6076 12.985 63.3717 11.0923 65.6107 11.0923C67.8498 11.0923 69.6139 13.0526 69.6139 15.6888C69.6817 18.2575 67.9176 20.1502 65.6107 20.1502Z" fill="#4285F4"/>
<path id="Vector_4" d="M49.191 8.05051C45.0521 8.05051 41.5918 11.2275 41.5918 15.5536C41.5918 19.8798 44.9843 23.0568 49.191 23.0568C53.3977 23.0568 56.7902 19.9474 56.7902 15.6212C56.7902 11.2275 53.3977 8.05051 49.191 8.05051ZM49.191 20.1502C46.8841 20.1502 44.9164 18.2575 44.9164 15.6212C44.9164 12.9174 46.8841 11.0923 49.191 11.0923C51.4979 11.0923 53.4655 12.9174 53.4655 15.6212C53.4655 18.2575 51.4979 20.1502 49.191 20.1502Z" fill="#FBBC05"/>
<path id="Vector_5" d="M75.1777 0.41217H78.4345V23.1244H75.1777V0.41217Z" fill="#34A853"/>
<path id="Vector_6" d="M88.4762 20.1502C86.7799 20.1502 85.6265 19.4066 84.8123 17.8519L94.9219 13.7286L94.5826 12.8498C93.972 11.1599 92.0044 8.05051 88.1369 8.05051C84.2695 8.05051 81.0127 11.0923 81.0127 15.5536C81.0127 19.7446 84.2016 23.0568 88.4762 23.0568C91.9365 23.0568 93.9042 20.9613 94.7862 19.7446L92.2079 18.0547C91.3259 19.339 90.1724 20.1502 88.4762 20.1502ZM88.2726 10.8895C89.6296 10.8895 90.7831 11.5655 91.1223 12.5118L84.3373 15.3509C84.2695 12.2415 86.5764 10.8895 88.2726 10.8895Z" fill="#EA4335"/>
</g>
</g>
<defs>
<clipPath id="clip0_70_1673">
<rect width="94.9219" height="29.7422" fill="white" transform="translate(0 0.0742188)"/>
</clipPath>
</defs>
</svg>
