<svg width="20" height="20" viewBox="0 0 20 20" fill="none" xmlns="http://www.w3.org/2000/svg">
<path d="M9.99999 5.42017C10.5525 5.42017 11.0824 5.63966 11.4731 6.03036C11.8638 6.42106 12.0833 6.95096 12.0833 7.5035C12.0833 7.77709 12.0294 8.048 11.9247 8.30076C11.82 8.55352 11.6666 8.78318 11.4731 8.97664C11.2797 9.17009 11.05 9.32355 10.7972 9.42825C10.5445 9.53295 10.2736 9.58683 9.99999 9.58683C9.44746 9.58683 8.91755 9.36734 8.52685 8.97664C8.13615 8.58594 7.91666 8.05603 7.91666 7.5035C7.91666 6.95096 8.13615 6.42106 8.52685 6.03036C8.91755 5.63966 9.44746 5.42017 9.99999 5.42017ZM9.99999 1.67017C11.5471 1.67017 13.0308 2.28475 14.1248 3.37871C15.2187 4.47267 15.8333 5.9564 15.8333 7.5035C15.8333 11.8785 9.99999 18.3368 9.99999 18.3368C9.99999 18.3368 4.16666 11.8785 4.16666 7.5035C4.16666 5.9564 4.78124 4.47267 5.8752 3.37871C6.96916 2.28475 8.45289 1.67017 9.99999 1.67017ZM9.99999 3.33683C8.89492 3.33683 7.83511 3.77582 7.05371 4.55722C6.27231 5.33862 5.83332 6.39843 5.83332 7.5035C5.83332 8.33683 5.83332 10.0035 9.99999 15.5952C14.1667 10.0035 14.1667 8.33683 14.1667 7.5035C14.1667 6.39843 13.7277 5.33862 12.9463 4.55722C12.1649 3.77582 11.1051 3.33683 9.99999 3.33683Z" fill="#EBEBEB"/>
</svg>
