<svg width="18" height="19" viewBox="0 0 18 19" fill="none" xmlns="http://www.w3.org/2000/svg">
<g id="material-symbols:fax-rounded">
<path id="Vector" d="M6 15.5V5C6 4.5875 6.147 4.23425 6.441 3.94025C6.735 3.64625 7.088 3.4995 7.5 3.5H12C12.4125 3.5 12.7658 3.647 13.0598 3.941C13.3538 4.235 13.5005 4.588 13.5 5V7.25H14.25C14.875 7.25 15.4063 7.46875 15.8438 7.90625C16.2813 8.34375 16.5 8.875 16.5 9.5V14C16.5 14.4125 16.353 14.7658 16.059 15.0598C15.765 15.3538 15.412 15.5005 15 15.5H6ZM3.375 16.25C3.9 16.25 4.34375 16.0688 4.70625 15.7063C5.06875 15.3438 5.25 14.9 5.25 14.375V8.375C5.25 7.85 5.06875 7.40625 4.70625 7.04375C4.34375 6.68125 3.9 6.5 3.375 6.5C2.85 6.5 2.40625 6.68125 2.04375 7.04375C1.68125 7.40625 1.5 7.85 1.5 8.375V14.375C1.5 14.9 1.68125 15.3438 2.04375 15.7063C2.40625 16.0688 2.85 16.25 3.375 16.25ZM7.5 7.25H12V5H7.5V7.25ZM12 11C12.2125 11 12.3907 10.928 12.5347 10.784C12.6788 10.64 12.7505 10.462 12.75 10.25C12.75 10.0375 12.678 9.85925 12.534 9.71525C12.39 9.57125 12.212 9.4995 12 9.5C11.7875 9.5 11.6093 9.572 11.4653 9.716C11.3213 9.86 11.2495 10.038 11.25 10.25C11.25 10.4625 11.322 10.6408 11.466 10.7848C11.61 10.9288 11.788 11.0005 12 11ZM14.25 11C14.4625 11 14.6408 10.928 14.7848 10.784C14.9288 10.64 15.0005 10.462 15 10.25C15 10.0375 14.928 9.85925 14.784 9.71525C14.64 9.57125 14.462 9.4995 14.25 9.5C14.0375 9.5 13.8593 9.572 13.7153 9.716C13.5713 9.86 13.4995 10.038 13.5 10.25C13.5 10.4625 13.572 10.6408 13.716 10.7848C13.86 10.9288 14.038 11.0005 14.25 11ZM12 13.25C12.2125 13.25 12.3907 13.178 12.5347 13.034C12.6788 12.89 12.7505 12.712 12.75 12.5C12.75 12.2875 12.678 12.1093 12.534 11.9653C12.39 11.8213 12.212 11.7495 12 11.75C11.7875 11.75 11.6093 11.822 11.4653 11.966C11.3213 12.11 11.2495 12.288 11.25 12.5C11.25 12.7125 11.322 12.8908 11.466 13.0348C11.61 13.1788 11.788 13.2505 12 13.25ZM14.25 13.25C14.4625 13.25 14.6408 13.178 14.7848 13.034C14.9288 12.89 15.0005 12.712 15 12.5C15 12.2875 14.928 12.1093 14.784 11.9653C14.64 11.8213 14.462 11.7495 14.25 11.75C14.0375 11.75 13.8593 11.822 13.7153 11.966C13.5713 12.11 13.4995 12.288 13.5 12.5C13.5 12.7125 13.572 12.8908 13.716 13.0348C13.86 13.1788 14.038 13.2505 14.25 13.25ZM7.5 13.25H10.5V9.5H7.5V13.25Z" fill="#666666"/>
</g>
</svg>
