<svg width="18" height="19" viewBox="0 0 18 19" fill="none" xmlns="http://www.w3.org/2000/svg">
<g id="material-symbols:phone-android-rounded">
<path id="Vector" d="M7.875 15.5H10.125C10.225 15.5 10.3125 15.4625 10.3875 15.3875C10.4625 15.3125 10.5 15.225 10.5 15.125C10.5 15.025 10.4625 14.9375 10.3875 14.8625C10.3125 14.7875 10.225 14.75 10.125 14.75H7.875C7.775 14.75 7.6875 14.7875 7.6125 14.8625C7.5375 14.9375 7.5 15.025 7.5 15.125C7.5 15.225 7.5375 15.3125 7.6125 15.3875C7.6875 15.4625 7.775 15.5 7.875 15.5ZM5.25 17.75C4.8375 17.75 4.48425 17.603 4.19025 17.309C3.89625 17.015 3.7495 16.662 3.75 16.25V2.75C3.75 2.3375 3.897 1.98425 4.191 1.69025C4.485 1.39625 4.838 1.2495 5.25 1.25H12.75C13.1625 1.25 13.5158 1.397 13.8098 1.691C14.1038 1.985 14.2505 2.338 14.25 2.75V16.25C14.25 16.6625 14.103 17.0157 13.809 17.3097C13.515 17.6038 13.162 17.7505 12.75 17.75H5.25ZM5.25 12.5H12.75V5H5.25V12.5Z" fill="#666666"/>
</g>
</svg>
