<svg width="18" height="19" viewBox="0 0 18 19" fill="none" xmlns="http://www.w3.org/2000/svg">
<g id="material-symbols:mail-rounded">
<path id="Vector" d="M3 15.5C2.5875 15.5 2.23425 15.353 1.94025 15.059C1.64625 14.765 1.4995 14.412 1.5 14V5C1.5 4.5875 1.647 4.23425 1.941 3.94025C2.235 3.64625 2.588 3.4995 3 3.5H15C15.4125 3.5 15.7658 3.647 16.0598 3.941C16.3538 4.235 16.5005 4.588 16.5 5V14C16.5 14.4125 16.353 14.7658 16.059 15.0598C15.765 15.3538 15.412 15.5005 15 15.5H3ZM9 10.1188C9.0625 10.1188 9.12825 10.1093 9.19725 10.0903C9.26625 10.0713 9.33175 10.0433 9.39375 10.0063L14.7 6.6875C14.8 6.625 14.875 6.54675 14.925 6.45275C14.975 6.35875 15 6.25575 15 6.14375C15 5.89375 14.8938 5.70625 14.6813 5.58125C14.4688 5.45625 14.25 5.4625 14.025 5.6L9 8.75L3.975 5.6C3.75 5.4625 3.53125 5.4595 3.31875 5.591C3.10625 5.7225 3 5.90675 3 6.14375C3 6.26875 3.025 6.37825 3.075 6.47225C3.125 6.56625 3.2 6.638 3.3 6.6875L8.60625 10.0063C8.66875 10.0438 8.7345 10.072 8.8035 10.091C8.8725 10.11 8.938 10.1193 9 10.1188Z" fill="#666666"/>
</g>
</svg>
