<svg width="18" height="19" viewBox="0 0 18 19" fill="none" xmlns="http://www.w3.org/2000/svg">
<g id="material-symbols:deskphone-rounded">
<path id="Vector" d="M12.75 14.75H14.25V4.25H12.75V14.75ZM5.25 11C5.4625 11 5.64075 10.928 5.78475 10.784C5.92875 10.64 6.0005 10.462 6 10.25C6 10.0375 5.928 9.85925 5.784 9.71525C5.64 9.57125 5.462 9.4995 5.25 9.5C5.0375 9.5 4.85925 9.572 4.71525 9.716C4.57125 9.86 4.4995 10.038 4.5 10.25C4.5 10.4625 4.572 10.6408 4.716 10.7847C4.86 10.9288 5.038 11.0005 5.25 11ZM5.25 13.25C5.4625 13.25 5.64075 13.178 5.78475 13.034C5.92875 12.89 6.0005 12.712 6 12.5C6 12.2875 5.928 12.1093 5.784 11.9653C5.64 11.8212 5.462 11.7495 5.25 11.75C5.0375 11.75 4.85925 11.822 4.71525 11.966C4.57125 12.11 4.4995 12.288 4.5 12.5C4.5 12.7125 4.572 12.8907 4.716 13.0347C4.86 13.1787 5.038 13.2505 5.25 13.25ZM5.25 8.75H9.75C9.9625 8.75 10.1408 8.678 10.2848 8.534C10.4288 8.39 10.5005 8.212 10.5 8V6.5C10.5 6.2875 10.428 6.10925 10.284 5.96525C10.14 5.82125 9.962 5.7495 9.75 5.75H5.25C5.0375 5.75 4.85925 5.822 4.71525 5.966C4.57125 6.11 4.4995 6.288 4.5 6.5V8C4.5 8.2125 4.572 8.39075 4.716 8.53475C4.86 8.67875 5.038 8.7505 5.25 8.75ZM7.5 11C7.7125 11 7.89075 10.928 8.03475 10.784C8.17875 10.64 8.2505 10.462 8.25 10.25C8.25 10.0375 8.178 9.85925 8.034 9.71525C7.89 9.57125 7.712 9.4995 7.5 9.5C7.2875 9.5 7.10925 9.572 6.96525 9.716C6.82125 9.86 6.7495 10.038 6.75 10.25C6.75 10.4625 6.822 10.6408 6.966 10.7847C7.11 10.9288 7.288 11.0005 7.5 11ZM7.5 13.25C7.7125 13.25 7.89075 13.178 8.03475 13.034C8.17875 12.89 8.2505 12.712 8.25 12.5C8.25 12.2875 8.178 12.1093 8.034 11.9653C7.89 11.8212 7.712 11.7495 7.5 11.75C7.2875 11.75 7.10925 11.822 6.96525 11.966C6.82125 12.11 6.7495 12.288 6.75 12.5C6.75 12.7125 6.822 12.8907 6.966 13.0347C7.11 13.1787 7.288 13.2505 7.5 13.25ZM9.75 11C9.9625 11 10.1408 10.928 10.2848 10.784C10.4288 10.64 10.5005 10.462 10.5 10.25C10.5 10.0375 10.428 9.85925 10.284 9.71525C10.14 9.57125 9.962 9.4995 9.75 9.5C9.5375 9.5 9.35925 9.572 9.21525 9.716C9.07125 9.86 8.9995 10.038 9 10.25C9 10.4625 9.072 10.6408 9.216 10.7847C9.36 10.9288 9.538 11.0005 9.75 11ZM9.75 13.25C9.9625 13.25 10.1408 13.178 10.2848 13.034C10.4288 12.89 10.5005 12.712 10.5 12.5C10.5 12.2875 10.428 12.1093 10.284 11.9653C10.14 11.8212 9.962 11.7495 9.75 11.75C9.5375 11.75 9.35925 11.822 9.21525 11.966C9.07125 12.11 8.9995 12.288 9 12.5C9 12.7125 9.072 12.8907 9.216 13.0347C9.36 13.1787 9.538 13.2505 9.75 13.25ZM12.75 16.25C12.4625 16.25 12.2095 16.1813 11.991 16.0438C11.7725 15.9062 11.5943 15.725 11.4563 15.5H3.75C3.3375 15.5 2.98425 15.353 2.69025 15.059C2.39625 14.765 2.2495 14.412 2.25 14V5C2.25 4.5875 2.397 4.23425 2.691 3.94025C2.985 3.64625 3.338 3.4995 3.75 3.5H11.4563C11.5938 3.275 11.772 3.09375 11.991 2.95625C12.21 2.81875 12.463 2.75 12.75 2.75H14.25C14.6625 2.75 15.0158 2.897 15.3098 3.191C15.6038 3.485 15.7505 3.838 15.75 4.25V14.75C15.75 15.1625 15.603 15.5157 15.309 15.8097C15.015 16.1038 14.662 16.2505 14.25 16.25H12.75Z" fill="#666666"/>
</g>
</svg>
