<svg width="25" height="24" viewBox="0 0 25 24" fill="none" xmlns="http://www.w3.org/2000/svg">
<g id="mdi:map-marker-outline">
<path id="Vector" d="M12.5 6.5C13.163 6.5 13.7989 6.76339 14.2678 7.23223C14.7366 7.70107 15 8.33696 15 9C15 9.3283 14.9353 9.65339 14.8097 9.95671C14.6841 10.26 14.4999 10.5356 14.2678 10.7678C14.0356 10.9999 13.76 11.1841 13.4567 11.3097C13.1534 11.4353 12.8283 11.5 12.5 11.5C11.837 11.5 11.2011 11.2366 10.7322 10.7678C10.2634 10.2989 10 9.66304 10 9C10 8.33696 10.2634 7.70107 10.7322 7.23223C11.2011 6.76339 11.837 6.5 12.5 6.5ZM12.5 2C14.3565 2 16.137 2.7375 17.4497 4.05025C18.7625 5.36301 19.5 7.14348 19.5 9C19.5 14.25 12.5 22 12.5 22C12.5 22 5.5 14.25 5.5 9C5.5 7.14348 6.2375 5.36301 7.55025 4.05025C8.86301 2.7375 10.6435 2 12.5 2ZM12.5 4C11.1739 4 9.90215 4.52678 8.96447 5.46447C8.02678 6.40215 7.5 7.67392 7.5 9C7.5 10 7.5 12 12.5 18.71C17.5 12 17.5 10 17.5 9C17.5 7.67392 16.9732 6.40215 16.0355 5.46447C15.0979 4.52678 13.8261 4 12.5 4Z" fill="#3B3B3B"/>
</g>
</svg>
