<svg width="25" height="24" viewBox="0 0 25 24" fill="none" xmlns="http://www.w3.org/2000/svg">
<g id="mdi:phone-in-talk-outline">
<path id="Vector" d="M20.5 15.5C19.3 15.5 18 15.3 16.9 14.9H16.6C16.3 14.9 16.1 15 15.9 15.2L13.7 17.4C10.9 15.9 8.5 13.6 7.1 10.8L9.3 8.6C9.6 8.3 9.7 7.9 9.5 7.6C9.2 6.5 9 5.2 9 4C9 3.5 8.5 3 8 3H4.5C4 3 3.5 3.5 3.5 4C3.5 13.4 11.1 21 20.5 21C21 21 21.5 20.5 21.5 20V16.5C21.5 16 21 15.5 20.5 15.5ZM5.5 5H7C7.1 5.9 7.3 6.8 7.5 7.6L6.3 8.8C5.9 7.6 5.6 6.3 5.5 5ZM19.5 19C18.2 18.9 16.9 18.6 15.7 18.2L16.9 17C17.7 17.2 18.6 17.4 19.5 17.4V19ZM15.5 12H17.5C17.5 10.6739 16.9732 9.40215 16.0355 8.46447C15.0979 7.52678 13.8261 7 12.5 7V9C13.2956 9 14.0587 9.31607 14.6213 9.87868C15.1839 10.4413 15.5 11.2044 15.5 12ZM19.5 12H21.5C21.5 7 17.47 3 12.5 3V5C16.36 5 19.5 8.13 19.5 12Z" fill="#3B3B3B"/>
</g>
</svg>
