<svg width="128" height="24" viewBox="0 0 128 24" fill="none" xmlns="http://www.w3.org/2000/svg">
<g id="monday.com svg" clip-path="url(#clip0_70_1691)">
<g id="g853">
<g id="g847">
<path id="path841" d="M3.52239 18.6349C3.0561 18.6359 2.5979 18.5132 2.19459 18.2791C1.79128 18.0451 1.45733 17.7082 1.22684 17.3028C0.999887 16.9003 0.886697 16.4437 0.8994 15.9818C0.912103 15.5199 1.05022 15.0702 1.29896 14.6807L6.02626 7.25716C6.26821 6.85818 6.61173 6.53058 7.02172 6.30781C7.43171 6.08504 7.89348 5.97509 8.35987 5.98918C8.8259 6.00035 9.2806 6.13514 9.67743 6.37975C10.0743 6.62437 10.399 6.97002 10.6184 7.38135C11.059 8.21465 11.004 9.21722 10.4761 9.99944L5.75184 17.423C5.51226 17.7964 5.18232 18.1032 4.7926 18.315C4.40287 18.5269 3.96597 18.6369 3.52239 18.6349Z" fill="#F62B54"/>
<path id="path843" d="M11.6311 18.6347C10.6777 18.6347 9.80031 18.1249 9.3396 17.3056C9.11315 16.9042 9.00022 16.4488 9.01293 15.9881C9.02563 15.5274 9.16349 15.0789 9.41171 14.6906L14.13 7.284C14.3684 6.87941 14.7107 6.54597 15.1214 6.31826C15.5321 6.09055 15.9962 5.97686 16.4656 5.98898C17.4271 6.01001 18.2984 6.54785 18.7391 7.38916C19.1768 8.23047 19.1127 9.23905 18.5689 10.0193L13.8516 17.4258C13.6127 17.7976 13.2841 18.1032 12.8961 18.3145C12.508 18.5257 12.073 18.6359 11.6311 18.6347Z" fill="#FFCC00"/>
<path id="ellipse845" d="M19.5585 18.6968C20.9026 18.6968 21.9923 17.63 21.9923 16.3141C21.9923 14.9981 20.9026 13.9314 19.5585 13.9314C18.2144 13.9314 17.1248 14.9981 17.1248 16.3141C17.1248 17.63 18.2144 18.6968 19.5585 18.6968Z" fill="#00CA72"/>
</g>
<path id="path849" d="M125.288 14.0696C126.023 14.0696 126.462 14.5924 126.462 15.4488V18.3833H127.461V15.3816C127.461 13.9254 126.775 13.0811 125.485 13.0811C124.98 13.0811 124.179 13.2193 123.701 14.1477C123.59 13.8739 123.407 13.6352 123.171 13.4571C122.935 13.279 122.656 13.1681 122.362 13.1361C122.177 13.1023 121.989 13.0912 121.801 13.1031C121.391 13.1361 120.659 13.3915 120.386 13.9704V13.1922H119.387V18.3833H120.386V15.582C120.386 14.4923 121.099 14.0696 121.813 14.0696C122.482 14.0696 122.922 14.5814 122.922 15.4377V18.3833H123.916V15.582C123.916 14.7146 124.436 14.0596 125.288 14.0696ZM115.718 17.516C116.175 17.526 116.615 17.3437 116.935 17.0132C117.255 16.6827 117.425 16.233 117.408 15.7713C117.408 14.7256 116.639 14.0696 115.718 14.0696C114.795 14.0696 114.027 14.7256 114.027 15.7713C114.009 16.232 114.179 16.6807 114.498 17.0102C114.816 17.3407 115.255 17.524 115.71 17.516H115.718ZM115.718 18.4895C114.258 18.4895 113.039 17.4108 113.039 15.7652C113.039 14.1197 114.258 13.075 115.718 13.075C117.178 13.075 118.407 14.1197 118.407 15.7652C118.407 17.4108 117.171 18.4945 115.711 18.4945L115.718 18.4895ZM107.896 15.7652L107.886 15.7713C107.886 14.1257 109.137 13.0811 110.607 13.075C110.976 13.0679 111.343 13.1384 111.683 13.2819C112.024 13.4255 112.33 13.6389 112.583 13.9083L111.826 14.5534C111.665 14.3954 111.474 14.2709 111.265 14.187C111.056 14.1032 110.832 14.0615 110.607 14.0646C109.686 14.0646 108.884 14.7206 108.884 15.7652C108.884 16.4714 109.304 17.1073 109.948 17.3778C110.592 17.6482 111.333 17.498 111.826 16.9992L112.594 17.6442C112.34 17.9164 112.033 18.1324 111.69 18.278C111.348 18.4236 110.979 18.4957 110.607 18.4895C109.148 18.4895 107.896 17.4108 107.896 15.7652ZM104.698 17.3868C104.697 17.296 104.714 17.2059 104.747 17.1217C104.781 17.0374 104.831 16.9607 104.895 16.8958C104.958 16.8308 105.034 16.779 105.117 16.7433C105.2 16.7076 105.29 16.6887 105.381 16.6877C105.472 16.6887 105.561 16.7076 105.645 16.7433C105.728 16.779 105.804 16.8308 105.867 16.8958C105.931 16.9607 105.981 17.0374 106.014 17.1217C106.048 17.2059 106.065 17.296 106.064 17.3868C106.055 17.5625 105.979 17.7283 105.852 17.8502C105.725 17.9721 105.557 18.041 105.381 18.0428C105.205 18.041 105.036 17.9721 104.909 17.8502C104.782 17.7283 104.707 17.5625 104.698 17.3868Z" fill="#333333"/>
<path id="path851" fill-rule="evenodd" clip-rule="evenodd" d="M107.43 6.59293H103.874L101.381 13.02L98.901 6.59293H95.3445L99.6682 16.7488L96.979 23.4633H100.509L107.43 6.59293ZM85.8008 12.2418C85.8008 13.8643 87.2189 14.932 88.6121 14.932C89.9812 14.932 91.3263 13.9384 91.3263 12.2407C91.3263 10.5431 89.9812 9.54855 88.6121 9.54855C87.2189 9.54855 85.8008 10.6182 85.8008 12.2418ZM91.3263 17.9126V16.6276C90.6052 17.7193 88.9226 18.1319 88.0592 18.1319C85.2008 18.1319 82.3414 15.8784 82.3414 12.2407C82.3414 8.60407 85.1998 6.35055 88.0592 6.35055C88.7794 6.35055 90.462 6.59093 91.3263 7.8529V6.59694H94.6414V17.9146L91.3263 17.9126ZM81.3979 17.9126H78.0828V16.5064C77.529 17.548 76.1859 18.155 74.7917 18.155C71.9083 18.155 69.3613 15.8524 69.3613 12.2868C69.3613 8.65415 71.9083 6.34855 74.7917 6.34855C76.1839 6.34855 77.531 6.92946 78.0828 7.97209V0.427307H81.3979V17.9126ZM78.0107 12.2157C78.0107 10.5191 76.7858 9.52451 75.4167 9.52451C73.9985 9.52451 72.8207 10.5912 72.8207 12.2157C72.8207 13.8923 73.9985 14.954 75.4157 14.954C76.8109 14.956 78.0107 13.8402 78.0107 12.2157ZM61.1647 11.9233C61.1647 10.2026 62.054 9.62066 63.2309 9.62066C64.3596 9.62066 65.1769 10.3718 65.1769 11.8742V17.9106H68.516V11.148C68.516 7.92501 66.9296 6.34855 64.4067 6.34855C63.0856 6.34855 61.7646 7.09972 61.1637 8.2395V6.59293H57.8265V17.9106H61.1647V11.9233ZM51.046 18.1049C47.8751 18.1049 45.23 15.7783 45.23 12.2147C45.23 8.64914 47.8721 6.34555 51.046 6.34555C54.2199 6.34555 56.8851 8.64914 56.8851 12.2147C56.8851 15.7803 54.2169 18.1049 51.046 18.1049ZM51.046 14.8098C52.4382 14.8098 53.593 13.7902 53.593 12.2157C53.593 10.6883 52.4392 9.6457 51.046 9.6457C50.7106 9.64045 50.3776 9.70354 50.0673 9.83113C49.757 9.95873 49.476 10.1481 49.2412 10.3879C49.0052 10.6289 48.8199 10.9148 48.6966 11.2289C48.5732 11.5429 48.5142 11.8785 48.5231 12.2157C48.5241 13.7922 49.6769 14.8098 51.046 14.8098ZM39.2438 9.62166C40.2283 9.62166 41.0936 10.3979 41.0936 11.8752V17.9126H44.4088V11.4846C44.4088 8.06723 42.7472 6.34655 40.0841 6.34655C39.2929 6.34655 37.8026 6.58692 36.7209 8.35769C36.0959 7.04864 34.8951 6.36958 33.1203 6.36958C32.5042 6.36645 31.9001 6.54084 31.3804 6.87192C30.8607 7.20299 30.4474 7.67673 30.1898 8.2365V6.59393H26.8486V17.9116H30.1868V11.9233C30.1868 10.2026 31.1242 9.62066 32.1328 9.62066C33.0943 9.62066 33.9576 10.3718 33.9827 11.8021V17.9116H37.3218V11.9233C37.3218 10.2777 38.1872 9.62166 39.2438 9.62166Z" fill="#333333"/>
</g>
</g>
<defs>
<clipPath id="clip0_70_1691">
<rect width="126.562" height="23.036" fill="white" transform="translate(0.898438 0.427338)"/>
</clipPath>
</defs>
</svg>
