<svg width="127" height="44" viewBox="0 0 127 44" fill="none" xmlns="http://www.w3.org/2000/svg">
<g id="Notion svg" clip-path="url(#clip0_70_1699)">
<g id="Group">
<g id="Group_2">
<path id="Vector" d="M2.83392 1.90015L27.1081 0.0778608C30.0547 -0.202491 30.8264 0.00777291 32.7206 1.33944L40.508 6.8063C41.7708 7.71744 42.1918 7.99779 42.1918 9.04911V38.9766C42.1918 40.869 41.4902 41.9904 39.1049 42.1306L10.9019 43.8127C9.07786 43.8828 8.23598 43.6725 7.32394 42.481L1.64126 35.1218C0.588908 33.72 0.167969 32.7388 0.167969 31.5473V4.91392C0.167969 3.37199 0.869535 2.04032 2.83392 1.90015Z" fill="white"/>
<path id="Vector_2" fill-rule="evenodd" clip-rule="evenodd" d="M27.1081 0.0778635L2.83392 1.90015C0.869535 2.04032 0.167969 3.37199 0.167969 4.91393V31.5473C0.167969 32.7388 0.588908 33.7901 1.64126 35.1218L7.32394 42.5511C8.23598 43.7426 9.14801 44.0229 10.9019 43.8828L39.1049 42.2007C41.4902 42.0605 42.1918 40.9391 42.1918 39.0467V9.04911C42.1918 8.06788 41.841 7.78753 40.6483 6.94647C40.5782 6.87639 40.508 6.87639 40.4379 6.8063L32.7206 1.40953C30.8966 0.00777567 30.1248 -0.1324 27.1081 0.0778635ZM11.5333 8.55849C9.21817 8.69867 8.72707 8.76876 7.3941 7.64735L4.09674 5.0541C3.74596 4.70366 3.88627 4.28313 4.7983 4.21305L28.1605 2.53094C30.1248 2.39076 31.107 3.02155 31.8788 3.65234L35.8777 6.52595C36.0881 6.59603 36.5091 7.08665 35.9478 7.08665L11.814 8.55849H11.5333ZM8.86739 38.7664V13.3245C8.86739 12.2031 9.21817 11.7124 10.2004 11.6424L37.9122 10.0303C38.8243 9.96025 39.2452 10.521 39.2452 11.6424V36.874C39.2452 37.9954 39.0347 38.9065 37.5614 38.9766L11.0422 40.5186C9.56895 40.6587 8.86739 40.098 8.86739 38.7664ZM35.0358 14.7262C35.1761 15.4972 35.0358 16.2682 34.2641 16.3382L33.0013 16.6186V35.4021C31.8787 36.0329 30.8966 36.3133 30.0547 36.3133C28.7217 36.3133 28.3709 35.8928 27.3186 34.6312L18.8998 21.4547V34.1406L21.5657 34.7714C21.5657 34.7714 21.5657 36.3133 19.461 36.3133L13.5679 36.6637C13.4276 36.3133 13.5679 35.4722 14.1291 35.3321L15.6726 34.9115V18.0904L13.5679 17.8802C13.4276 17.1092 13.8485 15.9878 15.0412 15.9177L21.3553 15.4972L30.0547 28.8139V17.0391L27.8097 16.7588C27.6694 15.8476 28.3008 15.1468 29.1426 15.0767L35.0358 14.7262Z" fill="black"/>
</g>
<path id="Vector_3" d="M60.8536 31.1268V19.5623H61.064L69.4127 31.1268H72.0786V14.0954H69.132V25.6599H68.9216L60.5729 14.0954H57.907V31.1268H60.8536ZM80.2869 31.337C84.1455 31.337 86.4607 28.8139 86.4607 24.6086C86.4607 20.4734 84.0754 17.8802 80.2869 17.8802C76.4283 17.8802 74.1132 20.4033 74.1132 24.6086C74.043 28.8139 76.4283 31.337 80.2869 31.337ZM80.2869 28.884C78.2524 28.884 77.0597 27.342 77.0597 24.6086C77.0597 21.9453 78.2524 20.3333 80.2869 20.3333C82.3215 20.3333 83.5141 21.8752 83.5141 24.6086C83.444 27.342 82.3215 28.884 80.2869 28.884ZM89.1267 15.0767V18.3007H87.0921V20.6136H89.1267V27.6224C89.1267 30.1456 90.3193 31.1268 93.2659 31.1268C93.8272 31.1268 94.3884 31.0567 94.8093 30.9866V28.7438C94.4586 28.8139 94.2481 28.8139 93.8272 28.8139C92.6345 28.8139 92.0732 28.2532 92.0732 26.9916V20.6837H94.8093V18.3708H92.0732V15.1467H89.1267V15.0767ZM96.5633 31.1268H99.5098V18.2306H96.5633V31.1268ZM98.0366 16.0579C99.0187 16.0579 99.7905 15.2869 99.7905 14.3057C99.7905 13.3245 99.0187 12.5535 98.0366 12.5535C97.0544 12.5535 96.2826 13.3245 96.2826 14.3057C96.2826 15.2869 97.0544 16.0579 98.0366 16.0579ZM107.508 31.337C111.366 31.337 113.681 28.8139 113.681 24.6086C113.681 20.4734 111.296 17.8802 107.508 17.8802C103.649 17.8802 101.334 20.4033 101.334 24.6086C101.264 28.8139 103.649 31.337 107.508 31.337ZM107.508 28.884C105.473 28.884 104.28 27.342 104.28 24.6086C104.28 21.9453 105.473 20.3333 107.508 20.3333C109.542 20.3333 110.735 21.8752 110.735 24.6086C110.665 27.342 109.542 28.884 107.508 28.884ZM115.435 31.1268H118.382V23.5573C118.382 21.6649 119.504 20.4734 121.188 20.4734C122.942 20.4734 123.784 21.4547 123.784 23.4171V31.0567H126.731V22.7162C126.731 19.6324 125.187 17.8802 122.311 17.8802C120.417 17.8802 119.084 18.7913 118.452 20.1931H118.242V18.2306H115.435V31.1268Z" fill="black"/>
</g>
</g>
<defs>
<clipPath id="clip0_70_1699">
<rect width="126.562" height="43.875" fill="white" transform="translate(0.167969 0.0078125)"/>
</clipPath>
</defs>
</svg>
