<svg width="16" height="16" viewBox="0 0 16 16" fill="none" xmlns="http://www.w3.org/2000/svg">
<path d="M14.6667 10.9202C13.6667 10.9202 12.5833 10.7535 11.6667 10.4202H11.4167C11.1667 10.4202 11 10.5035 10.8333 10.6702L9 12.5035C6.66667 11.2535 4.66667 9.33687 3.5 7.00354L5.33333 5.17021C5.58333 4.92021 5.66667 4.58687 5.5 4.33687C5.25 3.42021 5.08333 2.33687 5.08333 1.33687C5.08333 0.920207 4.66667 0.50354 4.25 0.50354H1.33333C0.916667 0.50354 0.5 0.920207 0.5 1.33687C0.5 9.17021 6.83333 15.5035 14.6667 15.5035C15.0833 15.5035 15.5 15.0869 15.5 14.6702V11.7535C15.5 11.3369 15.0833 10.9202 14.6667 10.9202ZM2.16667 2.17021H3.41667C3.5 2.92021 3.66667 3.67021 3.83333 4.33687L2.83333 5.33687C2.5 4.33687 2.25 3.25354 2.16667 2.17021ZM13.8333 13.8369C12.75 13.7535 11.6667 13.5035 10.6667 13.1702L11.6667 12.1702C12.3333 12.3369 13.0833 12.5035 13.8333 12.5035V13.8369ZM10.5 8.00354H12.1667C12.1667 6.89847 11.7277 5.83866 10.9463 5.05726C10.1649 4.27586 9.10507 3.83687 8 3.83687V5.50354C8.66304 5.50354 9.29893 5.76693 9.76777 6.23577C10.2366 6.70461 10.5 7.3405 10.5 8.00354ZM13.8333 8.00354H15.5C15.5 3.83687 12.1417 0.50354 8 0.50354V2.17021C11.2167 2.17021 13.8333 4.77854 13.8333 8.00354Z" fill="#EBEBEB"/>
</svg>
