<svg width="127" height="52" viewBox="0 0 127 52" fill="none" xmlns="http://www.w3.org/2000/svg">
<g id="Slack svg">
<g id="Group">
<g id="Group_2">
<path id="Vector" d="M45.4858 32.9416L46.7468 30.0043C48.1094 31.0242 49.9195 31.5545 51.7092 31.5545C53.0312 31.5545 53.865 31.0446 53.865 30.2695C53.8447 28.1074 45.9536 29.8004 45.8926 24.3747C45.8723 21.6211 48.3128 19.4998 51.7702 19.4998C53.8244 19.4998 55.8785 20.0097 57.3428 21.1723L56.1632 24.1707C54.8209 23.314 53.1532 22.7021 51.5669 22.7021C50.489 22.7021 49.7771 23.2121 49.7771 23.8648C49.7975 25.9861 57.7496 24.8234 57.8309 30.0043C57.8309 32.8192 55.4514 34.7977 52.0346 34.7977C49.5331 34.7977 47.2349 34.2062 45.4858 32.9416Z" fill="black"/>
<path id="Vector_2" d="M93.8697 28.9437C93.2392 30.0451 92.0596 30.7998 90.697 30.7998C88.6836 30.7998 87.0565 29.1681 87.0565 27.1487C87.0565 25.1294 88.6836 23.4976 90.697 23.4976C92.0596 23.4976 93.2392 24.2523 93.8697 25.3538L97.3475 23.416C96.0459 21.0907 93.5443 19.4998 90.697 19.4998C86.4871 19.4998 83.0703 22.9265 83.0703 27.1487C83.0703 31.371 86.4871 34.7977 90.697 34.7977C93.5646 34.7977 96.0459 33.2271 97.3475 30.8814L93.8697 28.9437Z" fill="black"/>
<path id="Vector_3" d="M63.9321 13.1562H59.5798V34.5121H63.9321V13.1562Z" fill="black"/>
<path id="Vector_4" d="M99.0557 13.1562V34.5121H103.408V28.1074L108.574 34.5121H114.146L107.577 26.9039L113.658 19.8057H108.33L103.408 25.7005V13.1562H99.0557Z" fill="black"/>
<path id="Vector_5" d="M76.8671 28.9845C76.2367 30.0247 74.9351 30.7998 73.4707 30.7998C71.4573 30.7998 69.8302 29.1681 69.8302 27.1487C69.8302 25.1294 71.4573 23.4976 73.4707 23.4976C74.9351 23.4976 76.2367 24.3135 76.8671 25.3742V28.9845ZM76.8671 19.8057V21.5395C76.1553 20.336 74.3859 19.4998 72.5352 19.4998C68.7117 19.4998 65.7017 22.8857 65.7017 27.1283C65.7017 31.371 68.7117 34.7977 72.5352 34.7977C74.3859 34.7977 76.1553 33.9614 76.8671 32.758V34.4917H81.2195V19.8057H76.8671Z" fill="black"/>
</g>
<g id="Group_3">
<g id="Group_4">
<path id="Vector_6" d="M18.5789 28.964C18.5789 30.453 17.379 31.6565 15.8943 31.6565C14.4097 31.6565 13.2097 30.453 13.2097 28.964C13.2097 27.475 14.4097 26.2716 15.8943 26.2716H18.5789V28.964Z" fill="#E01E5A"/>
<path id="Vector_7" d="M19.9211 28.964C19.9211 27.475 21.1211 26.2716 22.6057 26.2716C24.0904 26.2716 25.2903 27.475 25.2903 28.964V35.6951C25.2903 37.1841 24.0904 38.3875 22.6057 38.3875C21.1211 38.3875 19.9211 37.1841 19.9211 35.6951V28.964Z" fill="#E01E5A"/>
</g>
<g id="Group_5">
<path id="Vector_8" d="M22.606 18.1535C21.1213 18.1535 19.9214 16.9501 19.9214 15.4611C19.9214 13.9721 21.1213 12.7686 22.606 12.7686C24.0906 12.7686 25.2906 13.9721 25.2906 15.4611V18.1535H22.606Z" fill="#36C5F0"/>
<path id="Vector_9" d="M22.6059 19.5201C24.0905 19.5201 25.2905 20.7236 25.2905 22.2126C25.2905 23.7016 24.0905 24.905 22.6059 24.905H15.8741C14.3894 24.905 13.1895 23.7016 13.1895 22.2126C13.1895 20.7236 14.3894 19.5201 15.8741 19.5201H22.6059Z" fill="#36C5F0"/>
</g>
<g id="Group_6">
<path id="Vector_10" d="M33.3647 22.2126C33.3647 20.7236 34.5647 19.5201 36.0493 19.5201C37.534 19.5201 38.7339 20.7236 38.7339 22.2126C38.7339 23.7016 37.534 24.905 36.0493 24.905H33.3647V22.2126Z" fill="#2EB67D"/>
<path id="Vector_11" d="M32.0223 22.2125C32.0223 23.7015 30.8223 24.905 29.3377 24.905C27.853 24.905 26.6531 23.7015 26.6531 22.2125V15.4611C26.6531 13.9721 27.853 12.7686 29.3377 12.7686C30.8223 12.7686 32.0223 13.9721 32.0223 15.4611V22.2125Z" fill="#2EB67D"/>
</g>
<g id="Group_7">
<path id="Vector_12" d="M29.3377 33.0026C30.8223 33.0026 32.0223 34.2061 32.0223 35.6951C32.0223 37.1841 30.8223 38.3875 29.3377 38.3875C27.853 38.3875 26.6531 37.1841 26.6531 35.6951V33.0026H29.3377Z" fill="#ECB22E"/>
<path id="Vector_13" d="M29.3377 31.6565C27.853 31.6565 26.6531 30.453 26.6531 28.964C26.6531 27.475 27.853 26.2716 29.3377 26.2716H36.0695C37.5542 26.2716 38.7541 27.475 38.7541 28.964C38.7541 30.453 37.5542 31.6565 36.0695 31.6565H29.3377Z" fill="#ECB22E"/>
</g>
</g>
</g>
</g>
</svg>
