<svg width="128" height="26" viewBox="0 0 128 26" fill="none" xmlns="http://www.w3.org/2000/svg">
<g id="Trello svg" clip-path="url(#clip0_70_1681)">
<g id="Group">
<path id="Vector" fill-rule="evenodd" clip-rule="evenodd" d="M23.0041 0.078125H3.63939C1.97142 0.078125 0.628906 1.41761 0.628906 3.08182V22.3623C0.628906 23.1741 0.954364 23.9453 1.52392 24.5136C2.09347 25.0819 2.86643 25.4066 3.68008 25.4066H23.0041C23.8178 25.4066 24.5908 25.0819 25.1603 24.5136C25.7299 23.9453 26.0553 23.1741 26.0553 22.3623V3.08182C26.0146 1.41761 24.6721 0.078125 23.0041 0.078125ZM11.5724 18.3033C11.5724 18.5874 11.4504 18.8309 11.2877 19.0339C11.0842 19.2368 10.8402 19.318 10.5554 19.318H6.32442C5.75487 19.318 5.30737 18.8715 5.30737 18.3033V5.76079C5.30737 5.19253 5.75487 4.74603 6.32442 4.74603H10.5554C11.1249 4.74603 11.5724 5.19253 11.5724 5.76079V18.3033ZM21.3362 12.5394C21.3362 12.8235 21.2141 13.0671 21.0514 13.27C20.8887 13.473 20.6039 13.5542 20.3191 13.5542H16.0882C15.5186 13.5542 15.0711 13.1077 15.0711 12.5394V5.76079C15.0711 5.19253 15.5186 4.74603 16.0882 4.74603H20.3191C20.8887 4.74603 21.3362 5.19253 21.3362 5.76079V12.5394Z" fill="url(#paint0_linear_70_1681)"/>
<g id="Group_2">
<path id="Vector_2" d="M53.2311 1.94531V6.85676H47.4542V25.4066H41.84V6.81617H36.0225V1.94531H53.2311Z" fill="#293856"/>
<path id="Vector_3" d="M60.3912 25.4066H55.1838V7.14086H60.3505V10.6316C61.3269 8.15562 62.9135 6.69436 65.7205 6.89731V12.2958C62.0591 12.0117 60.3505 12.9047 60.3505 15.8272V25.4066H60.3912Z" fill="#293856"/>
<path id="Vector_4" d="M94.0762 25.5284C90.6589 25.5284 88.5435 23.9047 88.5435 20.0487V0.078125H93.7508V19.3586C93.7508 20.4546 94.4831 20.8605 95.3781 20.8605C95.6222 20.8605 95.9069 20.8605 96.151 20.8199V25.3254C95.4594 25.4878 94.7678 25.569 94.0762 25.5284Z" fill="#293856"/>
<path id="Vector_5" d="M104.938 25.5284C101.521 25.5284 99.4055 23.9047 99.4055 20.0487V0.078125H104.613V19.3586C104.613 20.4546 105.345 20.8605 106.281 20.8605C106.525 20.8605 106.81 20.8605 107.054 20.8199V25.3254C106.362 25.4878 105.671 25.569 104.938 25.5284Z" fill="#293856"/>
<path id="Vector_6" d="M109.535 16.2737C109.535 10.6316 112.79 6.77551 118.404 6.77551C124.018 6.77551 127.191 10.6316 127.191 16.2737C127.191 21.9158 123.977 25.853 118.404 25.853C112.83 25.853 109.535 21.8752 109.535 16.2737ZM114.62 16.2737C114.62 19.0338 115.76 21.1851 118.404 21.1851C121.048 21.1851 122.106 18.9933 122.106 16.2737C122.106 13.5541 120.967 11.4028 118.404 11.4028C115.841 11.4028 114.62 13.5135 114.62 16.2737Z" fill="#293856"/>
<path id="Vector_7" d="M72.7586 17.8973C74.2232 18.0597 75.6877 18.1409 77.1116 18.1409C81.0985 18.1409 84.4344 17.0855 84.4344 13.2294C84.4344 9.49511 80.9764 6.69437 76.8268 6.69437C71.2534 6.69437 67.6733 10.7128 67.6733 16.3955C67.6733 22.2405 70.7652 25.7313 77.7219 25.7313C79.7967 25.7313 81.8308 25.366 83.7835 24.6354V20.2922C81.9935 20.8604 80.0001 21.4287 77.9253 21.4287C75.1589 21.4693 73.2061 20.5357 72.7586 17.8973ZM76.7455 10.7128C78.21 10.7128 79.3898 11.7276 79.3898 13.0671C79.3898 14.8125 77.5184 15.3807 75.403 15.3807C74.508 15.3807 73.5723 15.2996 72.6773 15.1778C72.7586 14.3254 73.0027 13.5136 73.4095 12.7424C74.0605 11.5246 75.3623 10.7534 76.7455 10.7128Z" fill="#293856"/>
</g>
</g>
</g>
<defs>
<linearGradient id="paint0_linear_70_1681" x1="13.3257" y1="25.3941" x2="13.3257" y2="0.0741287" gradientUnits="userSpaceOnUse">
<stop stop-color="#0052CC"/>
<stop offset="1" stop-color="#2684FF"/>
</linearGradient>
<clipPath id="clip0_70_1681">
<rect width="126.562" height="25.7344" fill="white" transform="translate(0.628906 0.078125)"/>
</clipPath>
</defs>
</svg>
