<svg width="18" height="18" viewBox="0 0 18 18" fill="none" xmlns="http://www.w3.org/2000/svg">
<path d="M12.6333 10.6702C12.7 10.1202 12.75 9.57017 12.75 9.0035C12.75 8.43683 12.7 7.88683 12.6333 7.33683H15.45C15.5833 7.87017 15.6667 8.4285 15.6667 9.0035C15.6667 9.5785 15.5833 10.1368 15.45 10.6702M11.1583 15.3035C11.6583 14.3785 12.0417 13.3785 12.3083 12.3368H14.7667C13.9593 13.7271 12.6784 14.7802 11.1583 15.3035ZM10.95 10.6702H7.04999C6.96666 10.1202 6.91666 9.57017 6.91666 9.0035C6.91666 8.43683 6.96666 7.8785 7.04999 7.33683H10.95C11.025 7.8785 11.0833 8.43683 11.0833 9.0035C11.0833 9.57017 11.025 10.1202 10.95 10.6702ZM8.99999 15.6368C8.30832 14.6368 7.74999 13.5285 7.40832 12.3368H10.5917C10.25 13.5285 9.69166 14.6368 8.99999 15.6368ZM5.66666 5.67017H3.23332C4.03237 4.27618 5.31232 3.2214 6.83332 2.7035C6.33332 3.6285 5.95832 4.6285 5.66666 5.67017ZM3.23332 12.3368H5.66666C5.95832 13.3785 6.33332 14.3785 6.83332 15.3035C5.31551 14.7799 4.03736 13.7266 3.23332 12.3368ZM2.54999 10.6702C2.41666 10.1368 2.33332 9.5785 2.33332 9.0035C2.33332 8.4285 2.41666 7.87017 2.54999 7.33683H5.36666C5.29999 7.88683 5.24999 8.43683 5.24999 9.0035C5.24999 9.57017 5.29999 10.1202 5.36666 10.6702M8.99999 2.36183C9.69166 3.36183 10.25 4.4785 10.5917 5.67017H7.40832C7.74999 4.4785 8.30832 3.36183 8.99999 2.36183ZM14.7667 5.67017H12.3083C12.0475 4.63805 11.6613 3.64175 11.1583 2.7035C12.6917 3.2285 13.9667 4.28683 14.7667 5.67017ZM8.99999 0.670166C4.39166 0.670166 0.666656 4.42017 0.666656 9.0035C0.666656 11.2136 1.54463 13.3333 3.10743 14.8961C3.88125 15.6699 4.79991 16.2837 5.81096 16.7025C6.82201 17.1213 7.90564 17.3368 8.99999 17.3368C11.2101 17.3368 13.3297 16.4589 14.8925 14.8961C16.4553 13.3333 17.3333 11.2136 17.3333 9.0035C17.3333 7.90915 17.1178 6.82552 16.699 5.81447C16.2802 4.80342 15.6664 3.88476 14.8925 3.11094C14.1187 2.33712 13.2001 1.72329 12.189 1.3045C11.178 0.885714 10.0943 0.670166 8.99999 0.670166Z" fill="#EBEBEB"/>
</svg>
